# This file uses centimeters as units for non-parametric coordinates.

mtllib round_z+.mtl
g default
v 6.051726 161.462197 -10.975249
v 3.493966 164.019957 -10.975249
v 0.000000 164.956163 -10.975249
v -3.493966 164.019957 -10.975249
v -6.051726 161.462197 -10.975249
v -6.987931 157.968231 -10.975249
v -6.051726 154.474266 -10.975249
v -3.493966 151.916505 -10.975249
v 0.000000 150.980300 -10.975249
v 3.493966 151.916505 -10.975249
v 6.051726 154.474266 -10.975249
v 6.987931 157.968231 -10.975249
v 6.051726 161.462197 8.210927
v 3.493966 164.019957 8.210927
v 0.000000 164.956163 8.210927
v -3.493966 164.019957 8.210927
v -6.051726 161.462197 8.210927
v -6.987931 157.968231 8.210927
v -6.051726 154.474266 8.210927
v -3.493966 151.916505 8.210927
v 0.000000 150.980300 8.210927
v 3.493966 151.916505 8.210927
v 6.051726 154.474266 8.210927
v 6.987931 157.968231 8.210927
v 5.395773 161.083482 12.762504
v 3.115251 163.364004 12.762504
v 0.000000 164.198733 12.762504
v -3.115251 163.364004 12.762504
v -5.395773 161.083482 12.762504
v -6.230502 157.968231 12.762504
v -5.395773 154.852980 12.762504
v -3.115251 152.572459 12.762504
v 0.000000 151.737729 12.762504
v 3.115251 152.572459 12.762504
v 5.395773 154.852980 12.762504
v 6.230502 157.968231 12.762504
v 3.828117 160.178395 16.067581
v 2.210164 161.796348 16.067581
v 0.000000 162.388559 16.067581
v -2.210164 161.796348 16.067581
v -3.828117 160.178395 16.067581
v -4.420328 157.968231 16.067581
v -3.828117 155.758067 16.067581
v -2.210164 154.140115 16.067581
v 0.000000 153.547903 16.067581
v 2.210164 154.140115 16.067581
v 3.828117 155.758067 16.067581
v 4.420328 157.968231 16.067581
v 2.431022 159.371782 18.310095
v 1.403551 160.399253 18.310095
v 0.000000 157.968231 20.288291
v 0.000000 160.775333 18.310095
v -1.403551 160.399253 18.310095
v -2.431022 159.371782 18.310095
v -2.807102 157.968231 18.310095
v -2.431022 156.564680 18.310095
v -1.403551 155.537209 18.310095
v 0.000000 155.161129 18.310095
v 1.403551 155.537209 18.310095
v 2.431022 156.564680 18.310095
v 2.807102 157.968231 18.310095
v 4.187902 160.386118 -20.288291
v 2.417886 162.156134 -20.288291
v -0.000000 162.804004 -20.288291
v -2.417886 162.156134 -20.288291
v -4.187902 160.386118 -20.288291
v -4.835773 157.968231 -20.288291
v -4.187902 155.550345 -20.288291
v -2.417886 153.780329 -20.288291
v 0.000000 153.132458 -20.288291
v 2.417886 153.780329 -20.288291
v 4.187902 155.550345 -20.288291
v 4.835773 157.968231 -20.288291
vt 0.635316 0.078125
vt 0.578125 0.020934
vt 0.500000 0.000000
vt 0.421875 0.020934
vt 0.364684 0.078125
vt 0.343750 0.156250
vt 0.364684 0.234375
vt 0.421875 0.291566
vt 0.500000 0.312500
vt 0.578125 0.291566
vt 0.635316 0.234375
vt 0.656250 0.156250
vt 0.375000 0.312500
vt 0.395833 0.312500
vt 0.416667 0.312500
vt 0.437500 0.312500
vt 0.458333 0.312500
vt 0.479167 0.312500
vt 0.500000 0.312500
vt 0.520833 0.312500
vt 0.541667 0.312500
vt 0.562500 0.312500
vt 0.583333 0.312500
vt 0.604167 0.312500
vt 0.625000 0.312500
vt 0.375000 0.688440
vt 0.395833 0.688440
vt 0.416667 0.688440
vt 0.437500 0.688440
vt 0.458333 0.688440
vt 0.479167 0.688440
vt 0.500000 0.688440
vt 0.520833 0.688440
vt 0.541667 0.688440
vt 0.562500 0.688440
vt 0.583333 0.688440
vt 0.604167 0.688440
vt 0.625000 0.688440
vt 0.635316 0.765625
vt 0.578125 0.708434
vt 0.500000 0.687500
vt 0.421875 0.708434
vt 0.364684 0.765625
vt 0.343750 0.843750
vt 0.364684 0.921875
vt 0.421875 0.979066
vt 0.500000 1.000000
vt 0.578125 0.979066
vt 0.635316 0.921875
vt 0.656250 0.843750
vt 0.500000 0.837500
vt 0.635316 0.921875
vt 0.578125 0.979066
vt 0.500000 1.000000
vt 0.421875 0.979066
vt 0.364684 0.921875
vt 0.343750 0.843750
vt 0.364684 0.765625
vt 0.421875 0.708434
vt 0.500000 0.687500
vt 0.578125 0.708434
vt 0.635316 0.765625
vt 0.656250 0.843750
vt 0.635316 0.921875
vt 0.578125 0.979066
vt 0.500000 1.000000
vt 0.421875 0.979066
vt 0.364684 0.921875
vt 0.343750 0.843750
vt 0.364684 0.765625
vt 0.421875 0.708434
vt 0.500000 0.687500
vt 0.578125 0.708434
vt 0.635316 0.765625
vt 0.656250 0.843750
vt 0.635316 0.921875
vt 0.578125 0.979066
vt 0.500000 1.000000
vt 0.421875 0.979066
vt 0.364684 0.921875
vt 0.343750 0.843750
vt 0.364684 0.765625
vt 0.421875 0.708434
vt 0.500000 0.687500
vt 0.578125 0.708434
vt 0.635316 0.765625
vt 0.656250 0.843750
vt 0.578125 0.020934
vt 0.635316 0.078125
vt 0.500000 0.000000
vt 0.421875 0.020934
vt 0.364684 0.078125
vt 0.343750 0.156250
vt 0.364684 0.234375
vt 0.421875 0.291566
vt 0.500000 0.312500
vt 0.578125 0.291566
vt 0.635316 0.234375
vt 0.656250 0.156250
vn 0.866025 0.500000 0.000000
vn 0.500000 0.866025 0.000000
vn 0.500000 0.866025 0.000000
vn 0.866025 0.500000 0.000000
vn 0.000000 1.000000 0.000000
vn 0.000000 1.000000 0.000000
vn -0.500000 0.866025 0.000000
vn -0.500000 0.866025 0.000000
vn -0.866025 0.500000 0.000000
vn -0.866025 0.500000 0.000000
vn -1.000000 -0.000000 0.000000
vn -1.000000 -0.000000 0.000000
vn -0.866025 -0.500000 -0.000000
vn -0.866025 -0.500000 -0.000000
vn -0.500000 -0.866025 -0.000000
vn -0.500000 -0.866025 -0.000000
vn 0.000000 -1.000000 -0.000000
vn 0.000000 -1.000000 -0.000000
vn 0.500000 -0.866025 -0.000000
vn 0.500000 -0.866025 -0.000000
vn 0.866025 -0.500000 -0.000000
vn 0.866025 -0.500000 -0.000000
vn 1.000000 0.000000 -0.000000
vn 1.000000 0.000000 -0.000000
vn 0.000000 -0.000000 -1.000000
vn 0.000000 -0.000000 -1.000000
vn 0.000000 0.000000 -1.000000
vn 0.000000 -0.000000 1.000000
vn 0.351387 0.608620 0.711413
vn 0.000000 0.721764 0.692139
vn -0.351387 0.608620 0.711413
vn -0.625066 0.360882 0.692139
vn -0.702774 0.000000 0.711413
vn -0.625066 -0.360882 0.692139
vn -0.351387 -0.608620 0.711413
vn -0.000000 -0.721764 0.692139
vn 0.351387 -0.608620 0.711413
vn 0.625066 -0.360882 0.692139
vn 0.702774 -0.000000 0.711413
vn 0.625066 0.360882 0.692139
vn 0.854278 0.493217 0.164153
vn 0.493217 0.854278 0.164153
vn 0.479231 0.830051 0.285224
vn 0.830051 0.479230 0.285224
vn 0.000000 0.986435 0.164153
vn 0.000000 0.958461 0.285224
vn -0.493217 0.854278 0.164153
vn -0.479230 0.830051 0.285224
vn -0.854278 0.493217 0.164153
vn -0.830051 0.479230 0.285224
vn -0.986435 0.000000 0.164153
vn -0.958461 0.000000 0.285224
vn -0.854278 -0.493217 0.164153
vn -0.830051 -0.479230 0.285224
vn -0.493217 -0.854278 0.164153
vn -0.479231 -0.830051 0.285224
vn 0.000000 -0.986435 0.164153
vn 0.000000 -0.958461 0.285224
vn 0.493217 -0.854278 0.164153
vn 0.479230 -0.830051 0.285224
vn 0.854278 -0.493217 0.164153
vn 0.830051 -0.479230 0.285224
vn 0.986435 -0.000000 0.164153
vn 0.958461 -0.000000 0.285224
vn 0.429606 0.744099 0.511620
vn 0.744099 0.429606 0.511620
vn 0.000000 0.859212 0.511620
vn -0.429606 0.744099 0.511620
vn -0.744099 0.429606 0.511620
vn -0.859212 0.000000 0.511620
vn -0.744099 -0.429606 0.511620
vn -0.429606 -0.744099 0.511620
vn -0.000000 -0.859212 0.511620
vn 0.429606 -0.744099 0.511620
vn 0.744099 -0.429606 0.511620
vn 0.859212 -0.000000 0.511620
vn 0.487161 0.843788 -0.225157
vn 0.843788 0.487161 -0.225157
vn 0.843788 0.487161 -0.225157
vn 0.487161 0.843788 -0.225157
vn 0.000000 0.974322 -0.225157
vn 0.000000 0.974322 -0.225157
vn -0.487161 0.843788 -0.225157
vn -0.487161 0.843788 -0.225157
vn -0.843788 0.487161 -0.225157
vn -0.843788 0.487161 -0.225157
vn -0.974322 0.000000 -0.225157
vn -0.974322 0.000000 -0.225157
vn -0.843788 -0.487161 -0.225157
vn -0.843788 -0.487161 -0.225157
vn -0.487161 -0.843788 -0.225157
vn -0.487161 -0.843788 -0.225157
vn -0.000000 -0.974322 -0.225157
vn -0.000000 -0.974322 -0.225157
vn 0.487161 -0.843788 -0.225157
vn 0.487161 -0.843788 -0.225157
vn 0.843788 -0.487161 -0.225157
vn 0.843788 -0.487161 -0.225157
vn 0.974322 0.000000 -0.225157
vn 0.974322 0.000000 -0.225157
vn 0.000000 0.000000 -1.000000
vn 0.000000 -0.000000 -1.000000
vn 0.000000 0.000000 -1.000000
vn 0.000000 0.000000 -1.000000
vn 0.000000 -0.000000 -1.000000
vn 0.000000 -0.000000 -1.000000
vn 0.000000 0.000000 -1.000000
vn 0.000000 -0.000000 -1.000000
vn 0.000000 0.000000 -1.000000
s 1
g round_LP
usemtl initialShadingGroup
f 1/13/1 2/14/2 14/27/3 13/26/4
f 2/14/2 3/15/5 15/28/6 14/27/3
f 3/15/5 4/16/7 16/29/8 15/28/6
f 4/16/7 5/17/9 17/30/10 16/29/8
f 5/17/9 6/18/11 18/31/12 17/30/10
f 6/18/11 7/19/13 19/32/14 18/31/12
f 7/19/13 8/20/15 20/33/16 19/32/14
f 8/20/15 9/21/17 21/34/18 20/33/16
f 9/21/17 10/22/19 22/35/20 21/34/18
f 10/22/19 11/23/21 23/36/22 22/35/20
f 11/23/21 12/24/23 24/37/24 23/36/22
f 12/24/23 1/25/1 13/38/4 24/37/24
s 2
f 72/98/25 70/96/26 73/99/27
s 3
f 51/51/28 50/77/29 52/78/30 53/79/31
f 51/51/28 53/79/31 54/80/32 55/81/33
f 51/51/28 55/81/33 56/82/34 57/83/35
f 51/51/28 57/83/35 58/84/36 59/85/37
f 51/51/28 59/85/37 60/86/38 61/87/39
f 51/51/28 61/87/39 49/76/40 50/77/29
f 13/49/41 14/48/42 26/53/43 25/52/44
f 14/48/42 15/47/45 27/54/46 26/53/43
f 15/47/45 16/46/47 28/55/48 27/54/46
f 16/46/47 17/45/49 29/56/50 28/55/48
f 17/45/49 18/44/51 30/57/52 29/56/50
f 18/44/51 19/43/53 31/58/54 30/57/52
f 19/43/53 20/42/55 32/59/56 31/58/54
f 20/42/55 21/41/57 33/60/58 32/59/56
f 21/41/57 22/40/59 34/61/60 33/60/58
f 22/40/59 23/39/61 35/62/62 34/61/60
f 23/39/61 24/50/63 36/63/64 35/62/62
f 24/50/63 13/49/41 25/52/44 36/63/64
f 25/52/44 26/53/43 38/65/65 37/64/66
f 26/53/43 27/54/46 39/66/67 38/65/65
f 27/54/46 28/55/48 40/67/68 39/66/67
f 28/55/48 29/56/50 41/68/69 40/67/68
f 29/56/50 30/57/52 42/69/70 41/68/69
f 30/57/52 31/58/54 43/70/71 42/69/70
f 31/58/54 32/59/56 44/71/72 43/70/71
f 32/59/56 33/60/58 45/72/73 44/71/72
f 33/60/58 34/61/60 46/73/74 45/72/73
f 34/61/60 35/62/62 47/74/75 46/73/74
f 35/62/62 36/63/64 48/75/76 47/74/75
f 36/63/64 25/52/44 37/64/66 48/75/76
f 37/64/66 38/65/65 50/77/29 49/76/40
f 38/65/65 39/66/67 52/78/30 50/77/29
f 39/66/67 40/67/68 53/79/31 52/78/30
f 40/67/68 41/68/69 54/80/32 53/79/31
f 41/68/69 42/69/70 55/81/33 54/80/32
f 42/69/70 43/70/71 56/82/34 55/81/33
f 43/70/71 44/71/72 57/83/35 56/82/34
f 44/71/72 45/72/73 58/84/36 57/83/35
f 45/72/73 46/73/74 59/85/37 58/84/36
f 46/73/74 47/74/75 60/86/38 59/85/37
f 47/74/75 48/75/76 61/87/39 60/86/38
f 48/75/76 37/64/66 49/76/40 61/87/39
s 5
f 2/2/77 1/1/78 62/89/79 63/88/80
f 3/3/81 2/2/77 63/88/80 64/90/82
f 4/4/83 3/3/81 64/90/82 65/91/84
f 5/5/85 4/4/83 65/91/84 66/92/86
f 6/6/87 5/5/85 66/92/86 67/93/88
f 7/7/89 6/6/87 67/93/88 68/94/90
f 8/8/91 7/7/89 68/94/90 69/95/92
f 9/9/93 8/8/91 69/95/92 70/96/94
f 10/10/95 9/9/93 70/96/94 71/97/96
f 11/11/97 10/10/95 71/97/96 72/98/98
f 12/12/99 11/11/97 72/98/98 73/99/100
f 1/1/78 12/12/99 73/99/100 62/89/79
s 2
f 72/98/25 71/97/101 70/96/26
f 62/89/102 70/96/26 63/88/103
f 73/99/27 70/96/26 62/89/102
f 64/90/104 70/96/26 65/91/105
f 63/88/103 70/96/26 64/90/104
f 66/92/106 70/96/26 67/93/107
f 65/91/105 70/96/26 66/92/106
f 68/94/108 70/96/26 69/95/109
f 67/93/107 70/96/26 68/94/108
